<svg width="28" height="29" viewBox="0 0 28 29" fill="none" xmlns="http://www.w3.org/2000/svg">
<path d="M27.7186 7.48925L24.3936 4.83575C24.1677 4.68552 23.922 4.56978 23.6642 4.4921C23.4074 4.40603 23.1402 4.35818 22.8704 4.35H13.3L14.4214 11.6H22.8704C23.1 11.6 23.387 11.5463 23.6628 11.4579C23.9386 11.3694 24.2046 11.2476 24.3922 11.1157L27.7172 8.4593C27.9062 8.32735 28 8.1519 28 7.975C28 7.7981 27.9062 7.62265 27.7186 7.48925V7.48925ZM11.9 1.45H10.5C10.3143 1.45 10.1363 1.52638 10.005 1.66234C9.87375 1.79831 9.8 1.98271 9.8 2.175V7.25H5.1296C4.8972 7.25 4.6116 7.30365 4.3358 7.39355C4.0586 7.48055 3.794 7.6009 3.6064 7.73575L0.2814 10.3892C0.0924 10.5212 0 10.6981 0 10.875C0 11.0504 0.0924 11.2259 0.2814 11.3607L3.6064 14.0171C3.794 14.1491 4.0586 14.2709 4.3358 14.3579C4.6116 14.4463 4.8972 14.5 5.1296 14.5H9.8V26.825C9.8 27.0173 9.87375 27.2017 10.005 27.3376C10.1363 27.4736 10.3143 27.55 10.5 27.55H11.9C12.0857 27.55 12.2637 27.4736 12.395 27.3376C12.5263 27.2017 12.6 27.0173 12.6 26.825V2.175C12.6 1.98271 12.5263 1.79831 12.395 1.66234C12.2637 1.52638 12.0857 1.45 11.9 1.45V1.45Z" fill="black"/>
</svg>
